<?xml version="1.0" encoding="UTF-8" standalone="no"?>
<svg
   xmlns:dc="http://purl.org/dc/elements/1.1/"
   xmlns:cc="http://creativecommons.org/ns#"
   xmlns:rdf="http://www.w3.org/1999/02/22-rdf-syntax-ns#"
   xmlns:svg="http://www.w3.org/2000/svg"
   xmlns="http://www.w3.org/2000/svg"
   xmlns:sodipodi="http://sodipodi.sourceforge.net/DTD/sodipodi-0.dtd"
   xmlns:inkscape="http://www.inkscape.org/namespaces/inkscape"
   version="1.1"
   id="Capa_1"
   x="0px"
   y="0px"
   width="31.537px"
   height="31.537px"
   viewBox="0 0 31.537 31.537"
   style="enable-background:new 0 0 31.537 31.537;"
   xml:space="preserve"
   sodipodi:docname="chessKnight.svg"
   inkscape:version="1.0.2-2 (e86c870879, 2021-01-15)"><metadata
   id="metadata41"><rdf:RDF><cc:Work
       rdf:about=""><dc:format>image/svg+xml</dc:format><dc:type
         rdf:resource="http://purl.org/dc/dcmitype/StillImage" /><dc:title /></cc:Work></rdf:RDF></metadata><defs
   id="defs39" /><sodipodi:namedview
   pagecolor="#ffffff"
   bordercolor="#666666"
   borderopacity="1"
   objecttolerance="10"
   gridtolerance="10"
   guidetolerance="10"
   inkscape:pageopacity="0"
   inkscape:pageshadow="2"
   inkscape:window-width="958"
   inkscape:window-height="1008"
   id="namedview37"
   showgrid="false"
   inkscape:zoom="13.476234"
   inkscape:cx="15.568209"
   inkscape:cy="21.136606"
   inkscape:window-x="953"
   inkscape:window-y="0"
   inkscape:window-maximized="0"
   inkscape:current-layer="g4"
   inkscape:document-rotation="0" />
<g
   id="g4">
	<path
   d="m 24.36,27.178 h -0.093 c -0.660039,-1.087372 -1.178856,-1.171698 -1.111,-2.451 0.42,-1.89 0.935,-3.764 1.521,-5.607 0.965,-3.032 1.547,-6.064 0.587,-9.211 C 24.192,6.391 22.066,3.895 18.451,2.812 18.2,2.737 17.944,2.504 17.801,2.275 14.89245,-1.7883298 16.49089,1.7610842 15.028,3.006 12.462055,4.2496569 5.9551754,12.030297 5.8,12.608 c -0.135,0.714 0.478,1.944 1.137,2.263 1.561,0.756 5.053244,-0.0085 6.289244,-1.260535 1.804709,-1.375185 1.606737,0.78355 3.431756,0.383535 -0.267,0.281 -0.424,0.452 -0.587,0.617 -1.549,1.575 -3.045,3.194 -4.179,5.105 -0.901,1.519 -1.637,3.115 -1.607,4.923 0.0964,1.765898 -0.9952673,2.281586 -1.779,3.418 v 3.48 l 16.735,-0.003 v -3.478 c 0,-0.484 -0.394,-0.878 -0.881,-0.878 z"
   id="path2"
   sodipodi:nodetypes="scccccccccccccccccss"
   style="fill:#2d2d2d;fill-opacity:1" />
</g>
<g
   id="g6">
</g>
<g
   id="g8">
</g>
<g
   id="g10">
</g>
<g
   id="g12">
</g>
<g
   id="g14">
</g>
<g
   id="g16">
</g>
<g
   id="g18">
</g>
<g
   id="g20">
</g>
<g
   id="g22">
</g>
<g
   id="g24">
</g>
<g
   id="g26">
</g>
<g
   id="g28">
</g>
<g
   id="g30">
</g>
<g
   id="g32">
</g>
<g
   id="g34">
</g>
</svg>
